<svg width="36" height="36" viewBox="0 0 36 36" fill="none" xmlns="http://www.w3.org/2000/svg">
<path d="M18 30C21.1826 30 24.2348 28.7357 26.4853 26.4853C28.7357 24.2348 30 21.1826 30 18C30 14.8174 28.7357 11.7652 26.4853 9.51472C24.2348 7.26428 21.1826 6 18 6C14.8174 6 11.7652 7.26428 9.51472 9.51472C7.26428 11.7652 6 14.8174 6 18C6 21.1826 7.26428 24.2348 9.51472 26.4853C11.7652 28.7357 14.8174 30 18 30V30Z" stroke="#AACBC4" stroke-width="3" stroke-linecap="round" stroke-linejoin="round"/>
<path d="M18 21C18.7956 21 19.5587 20.6839 20.1213 20.1213C20.6839 19.5587 21 18.7956 21 18C21 17.2044 20.6839 16.4413 20.1213 15.8787C19.5587 15.3161 18.7956 15 18 15C17.2044 15 16.4413 15.3161 15.8787 15.8787C15.3161 16.4413 15 17.2044 15 18C15 18.7956 15.3161 19.5587 15.8787 20.1213C16.4413 20.6839 17.2044 21 18 21Z" stroke="#AACBC4" stroke-width="3" stroke-linecap="round" stroke-linejoin="round"/>
<path d="M18 3V6" stroke="#AACBC4" stroke-width="3" stroke-linecap="round" stroke-linejoin="round"/>
<path d="M18 33V30" stroke="#AACBC4" stroke-width="3" stroke-linecap="round" stroke-linejoin="round"/>
<path d="M25.5 30.99L24 28.395" stroke="#AACBC4" stroke-width="3" stroke-linecap="round" stroke-linejoin="round"/>
<path d="M16.5 15.4048L10.5 5.00977" stroke="#AACBC4" stroke-width="3" stroke-linecap="round" stroke-linejoin="round"/>
<path d="M30.9895 25.5L28.3945 24" stroke="#AACBC4" stroke-width="3" stroke-linecap="round" stroke-linejoin="round"/>
<path d="M5.01172 10.5L7.60672 12" stroke="#AACBC4" stroke-width="3" stroke-linecap="round" stroke-linejoin="round"/>
<path d="M21 18H33" stroke="#AACBC4" stroke-width="3" stroke-linecap="round" stroke-linejoin="round"/>
<path d="M3 18H6" stroke="#AACBC4" stroke-width="3" stroke-linecap="round" stroke-linejoin="round"/>
<path d="M30.9895 10.5L28.3945 12" stroke="#AACBC4" stroke-width="3" stroke-linecap="round" stroke-linejoin="round"/>
<path d="M5.01172 25.5L7.60672 24" stroke="#AACBC4" stroke-width="3" stroke-linecap="round" stroke-linejoin="round"/>
<path d="M25.5 5.00977L24 7.60477" stroke="#AACBC4" stroke-width="3" stroke-linecap="round" stroke-linejoin="round"/>
<path d="M16.5 20.5952L10.5 30.9902" stroke="#AACBC4" stroke-width="3" stroke-linecap="round" stroke-linejoin="round"/>
</svg>
