<svg width="37" height="36" viewBox="0 0 37 36" fill="none" xmlns="http://www.w3.org/2000/svg">
<path d="M31.6758 17.25C31.6809 19.2298 31.2184 21.1829 30.3258 22.95C29.2674 25.0677 27.6404 26.8488 25.627 28.094C23.6135 29.3391 21.2931 29.9991 18.9258 30C16.946 30.0052 14.993 29.5426 13.2258 28.65L4.67578 31.5L7.52578 22.95C6.63318 21.1829 6.17062 19.2298 6.17578 17.25C6.1767 14.8827 6.8367 12.5623 8.08186 10.5489C9.32702 8.53542 11.1082 6.90839 13.2258 5.85004C14.993 4.95744 16.946 4.49488 18.9258 4.50004H19.6758C22.8023 4.67253 25.7553 5.99218 27.9695 8.20633C30.1836 10.4205 31.5033 13.3735 31.6758 16.5V17.25Z" stroke="#AACBC4" stroke-width="3" stroke-linecap="round" stroke-linejoin="round"/>
</svg>
