<svg width="36" height="36" viewBox="0 0 36 36" fill="none" xmlns="http://www.w3.org/2000/svg">
<path d="M13.875 18C13.875 17.7016 13.9935 17.4155 14.2045 17.2045C14.4155 16.9935 14.7016 16.875 15 16.875H16.875V15C16.875 14.7016 16.9935 14.4155 17.2045 14.2045C17.4155 13.9935 17.7016 13.875 18 13.875C18.2984 13.875 18.5845 13.9935 18.7955 14.2045C19.0065 14.4155 19.125 14.7016 19.125 15V16.875H21C21.2984 16.875 21.5845 16.9935 21.7955 17.2045C22.0065 17.4155 22.125 17.7016 22.125 18C22.125 18.2984 22.0065 18.5845 21.7955 18.7955C21.5845 19.0065 21.2984 19.125 21 19.125H19.125V21C19.125 21.2984 19.0065 21.5845 18.7955 21.7955C18.5845 22.0065 18.2984 22.125 18 22.125C17.7016 22.125 17.4155 22.0065 17.2045 21.7955C16.9935 21.5845 16.875 21.2984 16.875 21V19.125H15C14.7016 19.125 14.4155 19.0065 14.2045 18.7955C13.9935 18.5845 13.875 18.2984 13.875 18Z" fill="#AACBC4"/>
<path fill-rule="evenodd" clip-rule="evenodd" d="M18 1.875C9.0945 1.875 1.875 9.0945 1.875 18C1.875 26.9055 9.0945 34.125 18 34.125C26.9055 34.125 34.125 26.9055 34.125 18C34.125 9.0945 26.9055 1.875 18 1.875ZM16.875 4.17C13.5945 4.43672 10.5156 5.86093 8.18826 8.18826C5.86093 10.5156 4.43672 13.5945 4.17 16.875H7.5C7.79837 16.875 8.08452 16.9935 8.2955 17.2045C8.50647 17.4155 8.625 17.7016 8.625 18C8.625 18.2984 8.50647 18.5845 8.2955 18.7955C8.08452 19.0065 7.79837 19.125 7.5 19.125H4.17C4.43672 22.4055 5.86093 25.4844 8.18826 27.8117C10.5156 30.1391 13.5945 31.5633 16.875 31.83V28.5C16.875 28.2016 16.9935 27.9155 17.2045 27.7045C17.4155 27.4935 17.7016 27.375 18 27.375C18.2984 27.375 18.5845 27.4935 18.7955 27.7045C19.0065 27.9155 19.125 28.2016 19.125 28.5V31.83C22.4055 31.5633 25.4844 30.1391 27.8117 27.8117C30.1391 25.4844 31.5633 22.4055 31.83 19.125H28.5C28.2016 19.125 27.9155 19.0065 27.7045 18.7955C27.4935 18.5845 27.375 18.2984 27.375 18C27.375 17.7016 27.4935 17.4155 27.7045 17.2045C27.9155 16.9935 28.2016 16.875 28.5 16.875H31.83C31.5633 13.5945 30.1391 10.5156 27.8117 8.18826C25.4844 5.86093 22.4055 4.43672 19.125 4.17V7.5C19.125 7.79837 19.0065 8.08452 18.7955 8.2955C18.5845 8.50647 18.2984 8.625 18 8.625C17.7016 8.625 17.4155 8.50647 17.2045 8.2955C16.9935 8.08452 16.875 7.79837 16.875 7.5V4.17Z" fill="#AACBC4"/>
</svg>
