<svg width="170" height="170" viewBox="0 0 170 170" fill="none" xmlns="http://www.w3.org/2000/svg">
<rect x="62.8918" y="2.89111" width="120" height="120" rx="10" transform="rotate(30 62.8918 2.89111)" fill="#CAD2FF"/>
<rect x="84.8528" y="1.41421" width="118" height="118" rx="9" transform="rotate(45 84.8528 1.41421)" fill="white" stroke="#0D0D0D" stroke-width="2"/>
<path d="M98.677 59.25C98.6822 61.2298 98.2196 63.1828 97.327 64.95C96.2687 67.0676 94.6416 68.8488 92.6282 70.0939C90.6147 71.3391 88.2944 71.9991 85.927 72C83.9472 72.0052 81.9942 71.5426 80.227 70.65L71.677 73.5L74.527 64.95C73.6344 63.1828 73.1718 61.2298 73.177 59.25C73.1779 56.8826 73.8379 54.5623 75.0831 52.5488C76.3282 50.5354 78.1094 48.9084 80.227 47.85C81.9942 46.9574 83.9472 46.4948 85.927 46.5H86.677C89.8035 46.6725 92.7566 47.9921 94.9707 50.2063C97.1849 52.4204 98.5045 55.3735 98.677 58.5V59.25Z" stroke="#CFE5FF" stroke-width="3" stroke-linecap="round" stroke-linejoin="round"/>
</svg>
